<svg xmlns="http://www.w3.org/2000/svg" version="1.1" xmlns:xlink="http://www.w3.org/1999/xlink" xmlns:svgjs="http://svgjs.com/svgjs" width="512" height="512" x="0" y="0" viewBox="0 0 511.942 511.942" style="enable-background:new 0 0 512 512" xml:space="preserve" class=""><g><g xmlns="http://www.w3.org/2000/svg"><path d="m46.236 134.338 417.475 255.305c20.919-36.082 32.903-77.99 32.903-122.7 0-135.309-109.69-244.999-244.999-244.999-86.384 0-162.32 44.712-205.944 112.252z" fill="#746bf9" data-original="#746bf9" class=""></path><path d="m453.207 41.153h-389.24c-6.041 0-10.938 4.897-10.938 10.938v36.49h411.115v-36.49c.001-6.041-4.896-10.938-10.937-10.938z" fill="#47477f" data-original="#47477f" class=""></path><g><path d="m118.443 52.418c0-5.035 3.078-9.384 7.445-11.265h-61.921c-6.041 0-10.938 4.897-10.938 10.938v36.49h65.414z" fill="#2d2d59" data-original="#2d2d59"></path></g><g><path d="m90.316 75.001c-5.634 0-10.136-4.594-10.136-10.136 0-6.424 5.913-11.182 12.112-9.934 4.857.986 8.159 5.193 8.159 9.934.001 5.406-4.355 10.136-10.135 10.136z" fill="#ff4155" data-original="#ff4155"></path></g><g><path d="m118.443 75.001c-5.634 0-10.136-4.594-10.136-10.136 0-6.424 5.913-11.182 12.113-9.934 4.857.986 8.159 5.193 8.159 9.934 0 5.406-4.356 10.136-10.136 10.136z" fill="#ffdd40" data-original="#ffdd40"></path></g><g><path d="m146.57 75.001c-5.634 0-10.136-4.594-10.136-10.136 0-6.424 5.913-11.182 12.113-9.934 4.857.986 8.159 5.193 8.159 9.934 0 5.406-4.357 10.136-10.136 10.136z" fill="#89e56a" data-original="#89e56a"></path></g><g><path d="m196.706 72.367h-14.5c-4.142 0-7.5-3.358-7.5-7.5s3.358-7.5 7.5-7.5h14.5c4.142 0 7.5 3.358 7.5 7.5s-3.358 7.5-7.5 7.5z" fill="#5f5f9b" data-original="#5f5f9b"></path></g><g><path d="m385.872 72.367h-157.333c-4.142 0-7.5-3.358-7.5-7.5s3.358-7.5 7.5-7.5h157.333c4.142 0 7.5 3.358 7.5 7.5s-3.358 7.5-7.5 7.5z" fill="#5f5f9b" data-original="#5f5f9b"></path></g><path d="m464.145 388.909v-302.43h-411.115v48.859h351.764c6.041 0 10.938 4.897 10.938 10.938v302.566c19.11-17.253 35.493-37.469 48.413-59.933z" fill="#d3dcfb" data-original="#d3dcfb" class=""></path><g><path d="m132.812 134.332h-2.11c-6.742 0-12.259-5.516-12.259-12.259v-35.594h-65.413v48.859h79.782z" fill="#bec8f7" data-original="#bec8f7" class=""></path></g><path d="m6.616 266.939v.01c.003 135.307 109.692 244.994 244.999 244.994 64.106 0 122.452-24.633 166.116-64.935v-268.343h-394.713c-10.584 27.389-16.402 57.151-16.402 88.274z" fill="#e9efff" data-original="#e9efff" class=""></path><g><path d="m92.921 228.33h-8.655c-6.73 0-12.236-5.506-12.236-12.236v-37.429h-49.012c-10.584 27.389-16.401 57.15-16.402 88.274v.009c.001 64.357 24.83 122.906 65.414 166.625v-52.599c0-6.73 5.506-12.236 12.236-12.236h8.655z" fill="#bec8f7" data-original="#bec8f7" class=""></path></g><path d="m406.793 133.338h-360.557c-9.636 14.782-17.717 30.668-24.016 47.428h395.512v-36.49c-.001-6.041-4.898-10.938-10.939-10.938z" fill="#47477f" data-original="#47477f" class=""></path><g><path d="m72.029 144.65c0-5.09 3.152-9.475 7.599-11.312h-33.393c-9.636 14.782-17.717 30.668-24.016 47.428h49.81z" fill="#2d2d59" data-original="#2d2d59"></path></g><g><path d="m43.902 167.187c-5.634 0-10.136-4.594-10.136-10.136 0-6.424 5.913-11.182 12.113-9.934 4.857.986 8.159 5.193 8.159 9.934 0 5.405-4.356 10.136-10.136 10.136z" fill="#ff4155" data-original="#ff4155"></path></g><g><path d="m72.029 167.187c-5.634 0-10.136-4.594-10.136-10.136 0-6.424 5.913-11.182 12.113-9.934 4.857.986 8.159 5.193 8.159 9.934 0 5.405-4.356 10.136-10.136 10.136z" fill="#ffdd40" data-original="#ffdd40"></path></g><g><path d="m100.156 167.187c-5.634 0-10.136-4.594-10.136-10.136 0-6.424 5.913-11.182 12.113-9.934 4.857.986 8.159 5.193 8.159 9.934 0 5.405-4.356 10.136-10.136 10.136z" fill="#89e56a" data-original="#89e56a"></path></g><g><path d="m150.292 164.552h-14.5c-4.142 0-7.5-3.358-7.5-7.5s3.358-7.5 7.5-7.5h14.5c4.142 0 7.5 3.358 7.5 7.5s-3.358 7.5-7.5 7.5z" fill="#5f5f9b" data-original="#5f5f9b"></path></g><g><path d="m385.792 164.552h-14.5c-4.142 0-7.5-3.358-7.5-7.5s3.358-7.5 7.5-7.5h14.5c4.142 0 7.5 3.358 7.5 7.5s-3.358 7.5-7.5 7.5z" fill="#5f5f9b" data-original="#5f5f9b"></path></g><g><path d="m339.459 164.552h-157.333c-4.142 0-7.5-3.358-7.5-7.5s3.358-7.5 7.5-7.5h157.333c4.142 0 7.5 3.358 7.5 7.5s-3.358 7.5-7.5 7.5z" fill="#5f5f9b" data-original="#5f5f9b"></path></g><path d="m212.174 241.593c0 7.836 6.352 14.188 14.187 14.188h126.338c7.835 0 14.187-6.352 14.187-14.187 0-7.835-6.352-14.187-14.187-14.187h-126.338c-7.835-.001-14.187 6.351-14.187 14.186z" fill="#ff4155" data-original="#ff4155"></path><path d="m278.269 241.593c0-7.835 6.352-14.187 14.187-14.187h-66.095c-7.835 0-14.187 6.352-14.187 14.187 0 7.836 6.352 14.188 14.187 14.188h66.095c-7.835 0-14.187-6.352-14.187-14.188z" fill="#e80054" data-original="#e80054" class=""></path><g><path d="m366.886 348.405h-154.713c-4.142 0-7.5-3.358-7.5-7.5s3.358-7.5 7.5-7.5h154.713c4.142 0 7.5 3.358 7.5 7.5s-3.358 7.5-7.5 7.5z" fill="#bec8f7" data-original="#bec8f7" class=""></path></g><g><path d="m366.886 320.031h-154.713c-4.142 0-7.5-3.358-7.5-7.5s3.358-7.5 7.5-7.5h154.713c4.142 0 7.5 3.358 7.5 7.5s-3.358 7.5-7.5 7.5z" fill="#bec8f7" data-original="#bec8f7" class=""></path></g><g><path d="m366.886 291.656h-154.713c-4.142 0-7.5-3.358-7.5-7.5s3.358-7.5 7.5-7.5h154.713c4.142 0 7.5 3.358 7.5 7.5s-3.358 7.5-7.5 7.5z" fill="#bec8f7" data-original="#bec8f7" class=""></path></g><g><path d="m366.886 405.155h-309.425c-4.142 0-7.5-3.358-7.5-7.5s3.358-7.5 7.5-7.5h309.426c4.142 0 7.5 3.358 7.5 7.5-.001 4.142-3.359 7.5-7.501 7.5z" fill="#bec8f7" data-original="#bec8f7" class=""></path></g><g><path d="m366.886 376.78h-154.712c-4.142 0-7.5-3.358-7.5-7.5s3.358-7.5 7.5-7.5h154.712c4.142 0 7.5 3.358 7.5 7.5s-3.358 7.5-7.5 7.5z" fill="#bec8f7" data-original="#bec8f7" class=""></path></g><g fill="#bec8f7"><path d="m366.886 446.904h-281.498c5.709 5.275 11.668 10.281 17.859 15h263.639c4.142 0 7.5-3.358 7.5-7.5s-3.358-7.5-7.5-7.5z" fill="#bec8f7" data-original="#bec8f7" class=""></path><path d="m366.886 418.53h-307.752c4.082 5.176 8.376 10.174 12.854 15h294.898c4.142 0 7.5-3.358 7.5-7.5s-3.358-7.5-7.5-7.5z" fill="#bec8f7" data-original="#bec8f7" class=""></path><path d="m373.604 479.459c-1.226-2.474-3.769-4.18-6.718-4.18h-244.224c8.993 5.578 18.364 10.604 28.083 15h201.74c7.234-3.272 14.28-6.886 21.119-10.82z" fill="#bec8f7" data-original="#bec8f7" class=""></path></g><path d="m174.408 227.406h-10.86v1.5c.238.857.404 1.706.496 2.533.556 4.988-.962 9.774-4.276 13.479-3.269 3.654-7.954 5.75-12.853 5.75-1.607 0-3.197-.221-4.725-.657-2.818-.802-5.806.388-7.268 2.896-5.063 8.694-14.448 14.095-24.494 14.095-8.359 0-16.251-3.67-21.651-10.069-1.227-1.454-3.011-2.234-4.837-2.234-.934 0-1.879.204-2.767.628-2.329 1.112-4.822 1.676-7.412 1.676-5.131 0-9.925-2.232-13.232-6.143h-1.5v84.107l28.38-28.38c3.878-3.878 10.167-3.878 14.046 0l33.22 33.22 18.346-18.346c3.879-3.878 10.167-3.878 14.046 0l15.288 15.288c0-31.581 0-78.207 0-101.395-.001-4.39-3.559-7.948-7.947-7.948z" fill="#42c3fc" data-original="#42c3fc" class=""></path><path d="m80.626 260.148c.462-1.505.349-3.083-.238-4.5-2.103.881-4.323 1.353-6.627 1.353-5.131 0-9.925-2.232-13.232-6.143h-1.5v84.108l28.38-28.38v-2c-16.931-20.43-9.366-36.02-6.783-44.438z" fill="#1aa9e8" data-original="#1aa9e8" class=""></path><path d="m66.976 369.28h99.174l-64.694-64.694c-3.879-3.878-10.167-3.878-14.046 0l-28.38 28.38v28.368c-.001 4.388 3.557 7.946 7.946 7.946z" fill="#65d33c" data-original="#65d33c" class=""></path><path d="m66.976 369.28h99.174l-56.75-56.749s3.189 13.43-4.255 20.875c-7.444 7.444-24.667 24.888-24.667 24.888s-6.564 7.414-21.449 3.04c0 4.388 3.558 7.946 7.947 7.946z" fill="#55bf28" data-original="#55bf28"></path><path d="m153.021 319.46-49.82 49.82h71.207c4.389 0 7.947-3.558 7.947-7.946 0-6.137 0-15.522 0-26.586l-15.288-15.288c-3.879-3.879-10.167-3.879-14.046 0z" fill="#89e56a" data-original="#89e56a"></path><circle cx="135.192" cy="294.324" fill="#ffdd40" r="14.027" data-original="#ffdd40"></circle><path d="m144.705 291.81c0 3.874-3.14 7.014-7.014 7.014s-7.014-3.14-7.014-7.014 3.14-7.013 7.014-7.013 7.014 3.14 7.014 7.013z" fill="#fceca9" data-original="#fceca9" class=""></path><path d="m59.029 235.353v16.043c3.451 4.329 8.766 7.106 14.732 7.106 2.887 0 5.616-.657 8.058-1.822 2.009-.959 4.375-.48 5.811 1.221 5.471 6.482 13.651 10.602 22.798 10.602 11.009 0 20.621-5.966 25.79-14.84 1.131-1.941 3.399-2.825 5.56-2.209 1.632.465 3.355.715 5.137.715 11.06 0 19.882-9.581 18.62-20.895-.149-1.337-.459-2.627-.882-3.867h-97.677c-4.389-.001-7.947 3.557-7.947 7.946z" fill="#8ae1ff" data-original="#8ae1ff" class=""></path><path d="m66.976 227.406c-4.389 0-7.947 3.558-7.947 7.946v16.043c3.451 4.329 8.766 7.106 14.732 7.106 2.497 0 4.875-.493 7.052-1.38-.189-1.122-.654-2.198-1.379-3.125-10.615-13.56.186-26.591.186-26.591h-12.644z" fill="#42c3fc" data-original="#42c3fc" class=""></path><ellipse cx="438.749" cy="66.578" fill="#ff4155" rx="66.578" ry="66.578" transform="matrix(.23 -.973 .973 .23 273.149 478.293)" data-original="#ff4155"></ellipse><path d="m498.931 95.065c-21.668 2.5-26.882-19.298-26.882-19.298l-56.036-32.352c-26.89 0-24.363-23.879-24.361-23.894-12.036 12.046-19.48 28.682-19.48 47.057 0 36.77 29.808 66.578 66.577 66.578 26.575-.001 49.505-15.575 60.182-38.091z" fill="#e80054" data-original="#e80054" class=""></path><path d="m410.493 85.464c5.225 1.1 10.366 3.018 15.235 5.829s9.101 6.305 12.665 10.28l27.604-19.856c2.491-1.35 4.559-3.362 5.975-5.816l.656-1.136c-.085-.047-.172-.083-.256-.131-4.838-2.793-7.68-7.707-8.04-12.889-.073-1.053-.663-1.908-1.468-2.421-.887-.566-2.035-.715-3.08-.205-10.307 5.035-22.427-1.949-23.221-13.407-.081-1.159-.784-2.08-1.717-2.565-.847-.441-1.883-.524-2.831-.061-4.667 2.28-10.344 2.275-15.182-.518-.084-.048-.159-.106-.242-.156l-.656 1.136c-1.416 2.453-2.126 5.251-2.049 8.083z" fill="#fcf9eb" data-original="#fcf9eb"></path><path d="m432.614 68.644c3.476-10.299 14.518-7.639 14.518-7.639l.208-1.151c-5.771-2.036-10.302-7.287-10.777-14.143-.08-1.159-.784-2.08-1.717-2.565-.847-.441-1.882-.524-2.831-.061-4.667 2.28-10.344 2.275-15.182-.518-.084-.048-.159-.106-.242-.156l-.656 1.136c-1.416 2.453-2.126 5.251-2.049 8.083l-3.394 33.833c5.006 1.053 9.933 2.868 14.62 5.49 2.428-7.23 5.576-16.604 7.502-22.309z" fill="#fceca9" data-original="#fceca9" class=""></path><path d="m426.306 90.291c-5.019-2.898-10.316-4.869-15.696-5.993l-2.75 27.413c-.577 4.991 5.085 8.26 9.119 5.265l22.365-16.088c-3.664-4.097-8.019-7.699-13.038-10.597z" fill="#5f5f9b" data-original="#5f5f9b"></path><path d="m441.045.058-25.032 43.357c.083.049.159.105.243.154 4.995 2.884 11.076 3.091 16.267.556.556-.271 1.182-.253 1.746.023l23.833-41.281c-5.425-1.646-11.144-2.608-17.057-2.809z" fill="#ffb332" data-original="#ffb332"></path><path d="m458.102 2.867-23.833 41.281c.044.021.09.032.133.057.595.344.962.922 1.009 1.586.4 5.764 3.62 10.926 8.615 13.81s11.076 3.091 16.267.556c.599-.292 1.283-.264 1.879.08.043.025.075.059.116.086l23.558-40.804c-7.641-7.645-17.134-13.433-27.744-16.652z" fill="#ffdd40" data-original="#ffdd40"></path><path d="m485.845 19.52-23.558 40.804c.522.349.85.883.893 1.5.4 5.763 3.62 10.925 8.615 13.81.084.048.171.086.255.133l24.436-42.325c-2.935-5.102-6.51-9.787-10.641-13.922z" fill="#ffb332" data-original="#ffb332"></path><path d="m421.671 101.211s1.679-5.008 3.815-11.37c-4.776-2.647-9.788-4.479-14.877-5.542l-2.75 27.413c-.577 4.991 5.085 8.26 9.119 5.265l8.639-6.214c-6.347-1.845-3.946-9.552-3.946-9.552z" fill="#47477f" data-original="#47477f" class=""></path></g></g></svg>